HIERARCHY
ROOT root
{
	OFFSET 0.000000 0.000000 0.000000
	CHANNELS 6 Xposition Yposition Zposition Zrotation Yrotation Xrotation
	JOINT lhip
	{
		OFFSET 0.058581 -0.082280 -0.017664
		CHANNELS 3 Zrotation Yrotation Xrotation
		JOINT lknee
		{
			OFFSET 0.043451 -0.386469 0.008037
			CHANNELS 3 Zrotation Yrotation Xrotation
			JOINT lankle
			{
				OFFSET -0.014790 -0.426874 -0.037428
				CHANNELS 3 Zrotation Yrotation Xrotation
				JOINT ltoe
				{
					OFFSET 0.041054 -0.060286 0.122042
					CHANNELS 3 Zrotation Yrotation Xrotation
					End Site
					{
						OFFSET 0.000000 0.000000 0.000000
					}
				}
			}
		}
	}
	JOINT rhip
	{
		OFFSET -0.060310 -0.090513 -0.013543
		CHANNELS 3 Zrotation Yrotation Xrotation
		JOINT rknee
		{
			OFFSET -0.043257 -0.383688 -0.004843
			CHANNELS 3 Zrotation Yrotation Xrotation
			JOINT rankle
			{
				OFFSET 0.019056 -0.420046 -0.034562
				CHANNELS 3 Zrotation Yrotation Xrotation
				JOINT rtoe
				{
					OFFSET -0.034840 -0.062106 0.130323
					CHANNELS 3 Zrotation Yrotation Xrotation
					End Site
					{
						OFFSET 0.000000 0.000000 0.000000
					}
				}
			}
		}
	}
	JOINT lowerback
	{
		OFFSET 0.004439 0.124404 -0.038385
		CHANNELS 3 Zrotation Yrotation Xrotation
		JOINT upperback
		{
			OFFSET 0.004488 0.137956 0.026820
			CHANNELS 3 Zrotation Yrotation Xrotation
			JOINT chest
			{
				OFFSET -0.002265 0.056032 0.002855
				CHANNELS 3 Zrotation Yrotation Xrotation
				JOINT lowerneck
				{
					OFFSET -0.013390 0.211636 -0.033468
					CHANNELS 3 Zrotation Yrotation Xrotation
					JOINT upperneck
					{
						OFFSET 0.010113 0.088937 0.050410
						CHANNELS 3 Zrotation Yrotation Xrotation
						End Site
						{
							OFFSET 0.000000 0.000000 0.000000
						}
					}
				}
				JOINT lclavicle
				{
					OFFSET 0.071702 0.114000 -0.018898
					CHANNELS 3 Zrotation Yrotation Xrotation
					JOINT lshoulder
					{
						OFFSET 0.122921 0.045205 -0.019046
						CHANNELS 3 Zrotation Yrotation Xrotation
						JOINT lelbow
						{
							OFFSET 0.255332 -0.015649 -0.022946
							CHANNELS 3 Zrotation Yrotation Xrotation
							JOINT lwrist
							{
								OFFSET 0.265709 0.012698 -0.007375
								CHANNELS 3 Zrotation Yrotation Xrotation
								End Site
								{
									OFFSET 0.000000 0.000000 0.000000
								}
							}
						}
					}
				}
				JOINT rclavicle
				{
					OFFSET -0.082954 0.112472 -0.023707
					CHANNELS 3 Zrotation Yrotation Xrotation
					JOINT rshoulder
					{
						OFFSET -0.113228 0.046853 -0.008472
						CHANNELS 3 Zrotation Yrotation Xrotation
						JOINT relbow
						{
							OFFSET -0.260127 -0.014369 -0.031269
							CHANNELS 3 Zrotation Yrotation Xrotation
							JOINT rwrist
							{
								OFFSET -0.269108 0.006794 -0.006027
								CHANNELS 3 Zrotation Yrotation Xrotation
								End Site
								{
									OFFSET 0.000000 0.000000 0.000000
								}
							}
						}
					}
				}
			}
		}
	}
}
MOTION
Frames: 7
Frame Time: 0.033333
0.270495 0.099503 0.960679 -9.820287 -0.894263 85.572154 0.231644 -0.366132 -17.602470 -6.916633 5.708276 35.411244 3.266561 7.483791 -18.648309 0.000000 -0.000000 0.000000 5.196275 6.515949 -18.875779 -0.424392 3.442316 36.763276 0.188161 -6.504939 -17.110459 0.000000 -0.000000 0.000000 -4.284983 -0.565933 21.872164 2.631522 -6.032494 2.885348 0.333951 -4.685764 5.510947 -2.183485 15.067067 -1.420087 -3.648843 11.704709 2.027945 -20.078627 0.029353 -1.846580 -51.711742 -10.477360 7.918209 23.755136 -61.039557 -7.257330 12.215295 -11.679644 -16.918418 18.095978 -9.061870 -3.898285 48.107151 -1.117974 6.684678 -78.246319 56.788959 -68.693197 1.511728 11.465038 -41.805482 
0.268408 0.107703 0.960628 -8.237087 -0.579439 85.914654 1.310417 -0.425445 -20.641993 -7.207218 5.911123 38.988980 0.862948 5.605634 -17.213256 0.000000 -0.000000 0.000000 5.012084 5.699790 -19.500299 -0.204922 2.207969 35.965241 -0.050665 -6.016860 -16.421654 0.000000 -0.000000 0.000000 -3.977206 -0.569722 23.852153 3.041247 -7.109722 2.248373 0.538455 -5.440490 4.624232 -2.644703 15.764030 -1.970338 -3.555305 12.043071 1.972318 -19.587261 -1.468514 -1.953726 -50.224441 -11.490058 7.416294 26.418156 -62.278261 -9.217998 12.700101 -11.758994 -17.061437 17.772612 -8.632071 -3.996689 48.690435 -1.405804 6.694216 -79.388085 56.993427 -68.855680 1.357338 11.434831 -42.761205 
0.266360 0.115551 0.965454 -6.966858 0.234467 86.480330 2.442691 0.377635 -22.723325 -7.022157 5.348890 41.601325 -2.301357 2.658271 -17.459851 0.000000 -0.000000 0.000000 5.483985 4.774912 -19.295731 0.333362 1.774651 33.296911 -0.542244 -6.501048 -14.775777 0.000000 -0.000000 0.000000 -3.321231 -0.640463 27.197646 2.966582 -8.181841 1.285515 2.207355 -5.575146 0.307941 -4.772898 13.699714 0.108461 -0.943267 15.287287 2.102843 -18.176352 -4.598766 -1.988820 -50.139512 -9.387073 5.478060 30.253304 -64.520397 -12.698420 13.030291 -12.121313 -16.065091 16.119470 -5.229153 -2.088782 49.305237 -5.647101 2.451927 -80.783345 58.776755 -71.702121 5.112814 13.374205 -42.284887 
0.264434 0.126939 0.975358 -5.132158 1.130170 87.571811 3.038054 1.197492 -23.589477 -6.451745 4.985076 45.149784 -2.176945 3.554950 -19.673961 0.000000 -0.000000 0.000000 5.647789 4.472212 -18.312209 0.265826 -0.140651 27.746345 0.070514 -5.483155 -11.184837 0.000000 -0.000000 0.000000 -3.445312 -0.779343 28.445809 4.146532 -9.233031 0.364367 3.364890 -6.152711 0.756113 -5.534384 14.616398 0.235261 -1.264493 15.601164 0.824912 -16.608117 -6.979366 -2.348640 -47.998950 -13.049717 4.717741 38.819875 -65.897227 -20.627709 14.315593 -11.412791 -15.944940 16.181071 -4.617800 -3.060536 48.798625 -5.048892 2.971350 -79.122963 59.479164 -69.999874 4.098408 13.196863 -43.139892 
0.263947 0.130661 0.978908 -4.857956 1.303296 88.127989 3.162044 1.315704 -23.518479 -5.710643 5.808788 46.780990 -1.831758 4.608275 -19.882876 0.000000 -0.000000 0.000000 5.702151 4.215670 -18.211755 0.204619 -0.399080 25.971006 0.321915 -5.263638 -9.833731 0.000000 -0.000000 0.000000 -3.591195 -0.606732 28.370308 4.426738 -9.451816 0.417800 3.614214 -6.170984 0.715368 -5.553543 14.764970 0.346663 -1.133021 15.510351 0.602292 -15.914044 -7.726959 -2.530382 -46.979000 -14.607073 4.527694 40.639784 -65.928300 -22.160701 14.962660 -11.459960 -16.022090 16.132419 -4.409512 -3.133154 49.126019 -4.642900 3.179289 -78.235254 58.975872 -68.519638 4.120837 13.323506 -43.600321 
0.263465 0.138559 0.984586 -4.576932 1.666987 89.716497 3.594916 1.119960 -23.178944 -4.213349 8.155360 50.306193 -1.336332 6.198865 -18.598942 0.000000 -0.000000 0.000000 5.752053 3.721971 -18.864533 0.368476 -0.762299 22.866569 0.851367 -4.722307 -7.520451 0.000000 -0.000000 0.000000 -3.723524 -0.315354 27.882585 4.929594 -9.833038 -0.038690 4.093150 -6.300342 0.370427 -5.963220 14.742933 0.996832 -0.419839 16.213433 0.400447 -14.667380 -9.577591 -2.331891 -44.562131 -16.963368 3.531066 45.126018 -65.688294 -27.082219 14.771407 -11.459234 -15.308622 15.913521 -3.518686 -2.561332 49.369320 -4.485402 3.374368 -77.478219 58.104696 -67.575815 4.702457 13.275304 -43.688127 
0.263924 0.146580 0.986911 -3.855367 2.135847 91.296810 3.881551 0.440428 -22.098089 -3.240654 9.740027 53.065726 -0.844801 7.423180 -14.801700 0.000000 -0.000000 0.000000 5.662727 3.825101 -19.888246 0.805521 -1.549939 20.523394 0.779328 -4.701024 -5.552336 0.000000 -0.000000 0.000000 -3.469729 -0.511924 27.580083 5.585135 -10.181700 -0.805648 4.382725 -6.675311 0.400496 -6.518085 14.940629 0.754091 -0.408183 16.979913 0.009429 -13.618439 -11.055963 -2.427203 -42.127754 -19.101414 2.546112 48.670031 -65.140438 -30.831581 15.482780 -12.093009 -14.396523 15.718799 -3.000341 -2.730640 48.955905 -4.467852 3.922299 -77.442615 58.060980 -67.776923 4.663258 13.188960 -43.885745 
